<svg xmlns="http://www.w3.org/2000/svg" xmlns:xlink="http://www.w3.org/1999/xlink" width="500" zoomAndPan="magnify" viewBox="0 0 375 374.999991" height="500" preserveAspectRatio="xMidYMid meet" version="1.0"><defs><clipPath id="id1"><path d="M 309 214 L 316.0625 214 L 316.0625 346 L 309 346 Z M 309 214 " clip-rule="nonzero"/></clipPath></defs><rect x="-37.5" width="450" fill="#ffffff" y="-37.499999" height="449.999989" fill-opacity="1"/><rect x="-37.5" width="450" fill="#ffffff" y="-37.499999" height="449.999989" fill-opacity="1"/><rect x="-37.5" width="450" fill="#ffffff" y="-37.499999" height="449.999989" fill-opacity="1"/><rect x="-37.5" width="450" fill="#ffffff" y="-37.499999" height="449.999989" fill-opacity="1"/><path fill="#3d3e69" d="M 67 233.195312 C 67.914062 228.574219 67.816406 224.027344 67.425781 219.355469 C 66.742188 211.222656 66.253906 204.179688 67.707031 196.085938 C 67.746094 195.839844 67.832031 193.933594 67.21875 194.070312 C 58.238281 196.21875 65.519531 225.222656 64.875 231.03125 C 64.691406 232.644531 66.316406 236.609375 67 233.195312 " fill-opacity="1" fill-rule="nonzero"/><path fill="#3d3e69" d="M 69.75 195.144531 L 69.761719 194.617188 C 69.785156 193.847656 69.859375 192.394531 69.113281 191.867188 C 68.257812 191.269531 68.097656 193.75 68.113281 194.054688 L 68.125 194.59375 C 68.148438 195.207031 68.210938 196.292969 68.785156 196.699219 C 69.46875 197.1875 69.738281 195.449219 69.75 195.144531 " fill-opacity="1" fill-rule="nonzero"/><path fill="#3d3e69" d="M 66.609375 202.273438 C 67.523438 200.84375 67.109375 199.070312 67.953125 197.613281 C 69.089844 195.65625 71.851562 194.496094 73.867188 193.824219 C 78.507812 192.246094 83.679688 193.394531 88.175781 191.976562 C 89.128906 191.683594 89.394531 190.546875 89.554688 189.667969 C 89.835938 188.027344 89.789062 186.671875 89.433594 185.03125 C 89.25 184.140625 88.90625 183.074219 87.953125 182.792969 C 83.203125 181.390625 75.945312 183.355469 71.496094 185.140625 C 65.644531 187.515625 63.675781 193.871094 64.484375 199.742188 C 64.617188 200.695312 64.835938 202.40625 65.984375 202.675781 L 66.058594 202.699219 L 66.609375 202.273438 " fill-opacity="1" fill-rule="nonzero"/><path fill="#3d3e69" d="M 87.269531 190.78125 C 122.644531 193.578125 159.640625 190.4375 195.222656 190.582031 C 213.28125 190.65625 231.339844 190.695312 249.421875 190.546875 C 265.171875 190.425781 283.523438 188.761719 298.796875 191.90625 C 301.09375 192.367188 301.046875 181.570312 298.394531 182.121094 C 283.28125 185.253906 264.804688 181.265625 249.03125 181.5 C 230.972656 181.769531 212.914062 181.730469 194.855469 181.730469 C 159.691406 181.707031 121.691406 178.625 87 184.3125 C 85.15625 184.605469 85.414062 190.632812 87.269531 190.78125 " fill-opacity="1" fill-rule="nonzero"/><path fill="#3d3e69" d="M 300.679688 189.289062 C 302.914062 193.664062 309.402344 194.054688 310.222656 199.449219 C 310.957031 204.304688 309.683594 209.28125 310.285156 214.171875 C 310.734375 217.9375 313.019531 221.238281 314.058594 215.675781 C 315.574219 207.640625 315.304688 196.648438 312.007812 189.105469 C 310.785156 186.304688 308.253906 183.199219 304.859375 183.652344 C 302.746094 183.917969 299.46875 186.929688 300.679688 189.289062 " fill-opacity="1" fill-rule="nonzero"/><g clip-path="url(#id1)"><path fill="#3d3e69" d="M 311.664062 216.054688 C 308.4375 239.101562 311.480469 263.226562 310.710938 286.472656 C 310.113281 304.175781 306.265625 326.859375 312.726562 343.792969 C 313.421875 345.601562 314.558594 345.296875 315.230469 343.730469 C 316.660156 340.371094 315.84375 335.773438 315.574219 332.347656 C 314.414062 317.640625 314.558594 302.792969 314.867188 288.046875 C 315.316406 264.644531 314.21875 241.191406 313.703125 217.789062 C 313.65625 216.066406 312.175781 212.300781 311.664062 216.054688 " fill-opacity="1" fill-rule="nonzero"/></g><path fill="#3d3e69" d="M 312.398438 345.417969 C 311.199219 350.1875 311.394531 355.691406 306.960938 358.6875 C 304.761719 360.164062 301.707031 360.582031 299.164062 361.09375 C 296.390625 361.65625 293.835938 361.242188 292.140625 363.699219 C 291.296875 364.921875 291.394531 367.476562 292.261719 368.664062 C 294.15625 371.257812 297.515625 370.949219 300.53125 371.144531 C 303.894531 371.355469 307.328125 370.472656 310.136719 368.628906 C 316.492188 364.433594 314.769531 354.96875 315.539062 348.683594 C 315.832031 346.261719 313.679688 340.332031 312.398438 345.417969 " fill-opacity="1" fill-rule="nonzero"/><path fill="#3d3e69" d="M 64.128906 236.179688 C 60.890625 273.609375 63.554688 312.269531 65.300781 349.722656 C 65.449219 352.964844 68.148438 355.175781 68.34375 350.675781 C 69.882812 313.101562 68.734375 274.832031 67.023438 237.230469 C 66.863281 233.722656 64.542969 231.277344 64.128906 236.179688 " fill-opacity="1" fill-rule="nonzero"/><path fill="#3d3e69" d="M 66.765625 352.070312 C 65.191406 357.914062 66.839844 364.382812 71.179688 368.601562 C 73.414062 370.765625 76.554688 371.855469 79.5 372.613281 C 81.871094 373.199219 86.84375 374.140625 89.078125 372.84375 C 90.984375 371.746094 91.679688 369.214844 91.179688 367.085938 C 90.300781 363.371094 87.355469 364.433594 84.398438 364.410156 C 77.09375 364.335938 70.113281 361.046875 68.820312 353.441406 C 68.648438 352.511719 67.425781 349.636719 66.765625 352.070312 " fill-opacity="1" fill-rule="nonzero"/><path fill="#3d3e69" d="M 92.671875 371.820312 C 124.828125 377.1875 158.578125 374.777344 191.003906 373.433594 C 208.378906 372.710938 225.792969 374.019531 243.140625 374.65625 C 259.003906 375.242188 282.511719 375.65625 297.820312 371.453125 C 299.1875 371.074219 298.933594 366.644531 297.6875 366.195312 C 283.648438 361.105469 263.558594 363.566406 248.726562 363.417969 C 231.328125 363.246094 213.941406 362.390625 196.527344 362.488281 C 179.203125 362.585938 161.875 363.957031 144.527344 364.175781 C 127.152344 364.394531 109.8125 363.613281 92.511719 365.582031 C 90.921875 365.765625 91.082031 371.550781 92.671875 371.820312 " fill-opacity="1" fill-rule="nonzero"/><path fill="#3d3e69" d="M 183.40625 273.792969 C 177.796875 269.597656 172.382812 263.386719 169.414062 256.992188 C 163.992188 245.3125 173.386719 235.679688 183.675781 232.644531 C 190.824219 230.542969 198.996094 231.265625 205.632812 234.554688 C 217.542969 240.472656 211.140625 253.859375 206.78125 262.75 C 206.121094 264.082031 206.730469 271.382812 208.160156 269.253906 C 215.1875 258.835938 218.742188 247.429688 214.722656 235.089844 C 210.003906 220.589844 191.105469 219.832031 179.265625 224.332031 C 168.277344 228.511719 163.734375 241.570312 164.917969 252.480469 C 165.824219 260.84375 172.226562 279.585938 183.417969 274.269531 L 183.40625 273.792969 " fill-opacity="1" fill-rule="nonzero"/><path fill="#3d3e69" d="M 202.441406 271.773438 L 202.480469 272.054688 C 202.539062 272.570312 202.636719 273.398438 203.089844 273.753906 C 203.652344 274.207031 203.933594 272.886719 203.96875 272.605469 L 204.007812 272.347656 C 204.128906 271.359375 204.324219 269.328125 203.40625 268.59375 C 202.441406 267.824219 202.40625 271.480469 202.441406 271.773438 " fill-opacity="1" fill-rule="nonzero"/><path fill="#3d3e69" d="M 203.285156 270.367188 C 197.445312 267.773438 199.839844 286.8125 200.265625 289.222656 C 202.453125 301.644531 208.648438 314.128906 214.148438 325.402344 C 215.945312 329.058594 217.214844 318.46875 216.785156 316.964844 C 212.277344 301.070312 200.941406 288.878906 203.457031 271.429688 L 203.285156 270.367188 " fill-opacity="1" fill-rule="nonzero"/><path fill="#3d3e69" d="M 176.027344 271.933594 C 176.464844 279.574219 178.3125 286.519531 175.964844 294.199219 C 173.421875 302.539062 170.0625 310.609375 167.167969 318.824219 C 166.324219 321.183594 168.292969 331.601562 170.0625 326.441406 C 174.070312 314.851562 179.9375 301.472656 180.351562 289.039062 C 180.535156 283.292969 180.851562 274.597656 176.746094 270.085938 C 176.234375 269.511719 176.011719 271.796875 176.027344 271.933594 " fill-opacity="1" fill-rule="nonzero"/><path fill="#3d3e69" d="M 169.230469 326.074219 C 169.585938 328.398438 170.015625 331.457031 172.226562 332.765625 C 173.546875 333.546875 173.851562 330.441406 173.898438 329.804688 C 174.011719 328.179688 173.960938 325.976562 172.777344 324.707031 C 172.445312 324.328125 172.078125 323.65625 171.664062 323.386719 L 171.066406 322.824219 C 170.773438 322.199219 170.199219 321.378906 169.660156 322.335938 C 169.074219 323.386719 169.050781 324.925781 169.230469 326.074219 " fill-opacity="1" fill-rule="nonzero"/><path fill="#3d3e69" d="M 172.25 331.332031 C 175.074219 332.8125 180.546875 332.03125 183.710938 332.226562 C 189.832031 332.617188 195.894531 332.789062 202.027344 332.421875 C 206.070312 332.175781 210.496094 331.613281 214.320312 330.683594 C 217.433594 329.941406 216.652344 322.910156 216.1875 320.914062 C 215.980469 320.046875 214.855469 317.257812 213.855469 319.226562 C 210.078125 326.578125 200.914062 325.597656 193.523438 325.695312 C 189.199219 325.746094 184.882812 325.832031 180.558594 325.867188 C 178.238281 325.878906 174.109375 325.160156 172.140625 326.625 C 171.273438 327.261719 171.234375 330.808594 172.25 331.332031 " fill-opacity="1" fill-rule="nonzero"/><path fill="#3d3e69" d="M 237.425781 189.640625 C 265 193.359375 250.875 240.496094 249.042969 258.824219 C 247.296875 276.261719 247.175781 294.503906 248.175781 311.988281 C 248.542969 318.398438 249.800781 324.816406 250.546875 331.1875 C 253.222656 354.382812 241.675781 363.6875 223.898438 369.996094 C 223.53125 370.132812 223.617188 371.476562 223.933594 371.414062 C 242.054688 367.785156 251.730469 359.800781 252.746094 340.96875 C 253.355469 329.449219 250.144531 317.871094 249.472656 306.414062 C 248.542969 290.46875 249.117188 273.730469 250.570312 257.796875 C 251.988281 242.246094 266.101562 188.234375 237.425781 189.59375 L 237.425781 189.640625 " fill-opacity="1" fill-rule="nonzero"/><path fill="#3d3e69" d="M 87.980469 186.585938 C 88.601562 172.988281 88.6875 159.367188 88.945312 145.757812 C 89.199219 131.792969 86.707031 118.039062 86.792969 104.113281 C 86.792969 103.5625 86.339844 102.523438 86.109375 103.597656 C 84.09375 112.792969 84.644531 121.632812 85.535156 130.964844 C 87.234375 149.011719 85.15625 167.597656 85.351562 185.71875 C 85.402344 188.578125 87.796875 190.484375 87.980469 186.585938 " fill-opacity="1" fill-rule="nonzero"/><path fill="#3d3e69" d="M 86.902344 103.242188 C 87.722656 103.253906 87.734375 99.953125 86.878906 99.941406 C 86.058594 99.929688 86.046875 103.230469 86.902344 103.242188 " fill-opacity="1" fill-rule="nonzero"/><path fill="#3d3e69" d="M 88.652344 98.890625 C 90.421875 75.890625 109.179688 50.164062 125.527344 34.832031 C 141.644531 19.707031 166.777344 13.886719 188.257812 13.726562 C 214.78125 13.542969 243.324219 22.101562 264.144531 38.671875 C 273.675781 46.261719 280.03125 57.207031 284.980469 68.125 C 289.867188 78.863281 290.039062 90.660156 294.363281 101.371094 C 295 102.960938 295.585938 99.195312 295.585938 98.890625 C 295 75.253906 286.617188 52.132812 271.453125 33.976562 C 252.269531 10.976562 216.507812 2.964844 188.183594 1.9375 C 137.316406 0.09375 86.425781 46.289062 86.914062 98.230469 C 86.941406 100.320312 88.429688 101.789062 88.652344 98.890625 " fill-opacity="1" fill-rule="nonzero"/><path fill="#3d3e69" d="M 291.601562 186.167969 C 293.273438 186.21875 294.9375 186.265625 296.597656 186.316406 C 298.125 178.722656 297.257812 169.832031 297.417969 162.902344 C 297.882812 143.3125 295.4375 123.46875 297.269531 103.988281 C 297.34375 103.171875 296.597656 98.058594 295.707031 100.90625 C 291.664062 113.699219 293.359375 127.464844 293.605469 140.660156 C 293.886719 155.722656 290.941406 171.140625 291.601562 186.167969 " fill-opacity="1" fill-rule="nonzero"/><path fill="#3d3e69" d="M 121.46875 184.847656 C 123.289062 158.976562 124.769531 130.363281 121.675781 104.625 C 121.554688 103.5625 120.75 102.484375 120.46875 104.160156 C 116.15625 129.558594 115.605469 159.417969 119.5625 184.859375 C 119.882812 186.953125 121.3125 187.125 121.46875 184.847656 " fill-opacity="1" fill-rule="nonzero"/><path fill="#3d3e69" d="M 122.140625 101.078125 L 122.042969 100.457031 C 121.847656 99.355469 121.238281 99.464844 121.019531 100.457031 L 120.882812 101.089844 C 120.761719 101.59375 120.566406 104.40625 121.542969 104.40625 C 122.53125 104.394531 122.238281 101.582031 122.140625 101.078125 " fill-opacity="1" fill-rule="nonzero"/><path fill="#3d3e69" d="M 123.765625 96.589844 C 125.0625 80.097656 139.808594 64.203125 152.125 54.53125 C 164.75 44.589844 181.511719 42.105469 197.066406 42.425781 C 212.558594 42.753906 227.171875 48.585938 239.769531 57.292969 C 255.066406 67.84375 255.910156 83.570312 262.09375 99.28125 C 263.046875 101.726562 264.074219 94.160156 263.828125 93.082031 C 259.871094 75.609375 257.609375 62.429688 243.925781 49.847656 C 228.921875 36.054688 207.292969 31.210938 187.535156 31.882812 C 155.546875 32.972656 120.003906 62.488281 122.042969 96.605469 C 122.179688 98.964844 123.582031 98.890625 123.765625 96.589844 " fill-opacity="1" fill-rule="nonzero"/><path fill="#3d3e69" d="M 261.664062 185.960938 C 263.15625 185.914062 264.648438 185.886719 266.125 185.863281 C 268.875 176.828125 267.164062 163.832031 267.03125 156.015625 C 266.710938 137.445312 265.429688 118.601562 263.839844 100.101562 C 263.632812 97.605469 262.460938 97.679688 262.226562 100.113281 C 260.773438 114.957031 262.277344 130.007812 262.714844 144.878906 C 263.132812 158.597656 261.226562 172.328125 261.664062 185.960938 " fill-opacity="1" fill-rule="nonzero"/><path fill="#3d3e69" d="M 87.050781 129.898438 C 87.308594 146.613281 103.960938 151.554688 109.667969 134.386719 C 114.027344 121.230469 113.90625 106.8125 118.035156 93.449219 C 122.863281 77.808594 132.332031 65.523438 142.242188 52.902344 C 142.460938 52.632812 142.351562 50.933594 141.984375 51.226562 C 128.152344 61.925781 120.46875 78.457031 115.53125 94.84375 C 113.613281 101.152344 112.332031 107.804688 111.460938 114.332031 C 110.839844 119.101562 110.242188 123.882812 109.460938 128.628906 C 109.054688 135.574219 105.488281 140.609375 98.804688 143.753906 C 91.59375 141.894531 87.882812 137.273438 87.699219 129.886719 C 87.660156 128.910156 87.027344 128.910156 87.050781 129.898438 " fill-opacity="1" fill-rule="nonzero"/><path fill="#3d3e69" d="M 263.230469 122.746094 C 263.730469 133.519531 280.3125 152.484375 287.105469 135.632812 C 296.023438 113.503906 292.714844 85.148438 285.246094 63.136719 C 284.882812 62.074219 284.613281 64.175781 284.699219 64.542969 C 289.085938 83.851562 292.042969 102.03125 289.269531 121.925781 C 288.449219 127.734375 287.472656 133.101562 283.195312 137.625 C 274.714844 146.625 264.378906 128.164062 263.804688 122.527344 C 263.707031 121.570312 263.191406 122.035156 263.230469 122.746094 " fill-opacity="1" fill-rule="nonzero"/><path fill="#3d3e69" d="M 90.421875 140.671875 C 88.796875 144.964844 87.125 149.414062 85.925781 153.925781 C 85.976562 155.34375 85.976562 156.773438 85.9375 158.207031 C 88.015625 153.179688 89.1875 147.628906 91.082031 142.542969 C 91.277344 142.003906 90.898438 139.4375 90.421875 140.671875 " fill-opacity="1" fill-rule="nonzero"/><path fill="#3d3e69" d="M 96.128906 143.875 C 93.722656 151.175781 90.53125 158.242188 88.539062 165.664062 C 88.480469 165.882812 88.636719 167.304688 88.859375 166.839844 C 92.292969 159.613281 94.859375 151.710938 97.117188 144.007812 C 96.777344 143.996094 96.445312 143.949219 96.128906 143.875 " fill-opacity="1" fill-rule="nonzero"/><path fill="#3d3e69" d="M 105.035156 140.355469 C 99.035156 153.558594 92.523438 167.15625 89.824219 181.363281 C 89.773438 181.597656 89.945312 182.976562 90.238281 182.269531 C 96.03125 168.035156 100.894531 153.535156 107.125 139.425781 C 107.234375 139.144531 107.222656 138.507812 107.136719 137.921875 C 106.746094 138.933594 106.039062 139.804688 105.035156 140.355469 " fill-opacity="1" fill-rule="nonzero"/><path fill="#3d3e69" d="M 121.410156 113.332031 C 112.941406 136.257812 101.152344 158.058594 95.957031 182.097656 C 95.773438 182.953125 96.457031 185.828125 96.945312 183.75 C 102.578125 159.964844 113.761719 138.214844 122.042969 115.324219 C 122.238281 114.761719 121.886719 112.035156 121.410156 113.332031 " fill-opacity="1" fill-rule="nonzero"/><path fill="#3d3e69" d="M 115.445312 148.058594 C 111.242188 161.75 103.582031 174.46875 100.320312 188.382812 C 100.28125 188.601562 100.464844 190.375 100.808594 189.753906 C 107.246094 177.574219 112.171875 163.15625 116.082031 149.953125 C 116.242188 149.414062 115.835938 146.796875 115.445312 148.058594 " fill-opacity="1" fill-rule="nonzero"/><path fill="#3d3e69" d="M 118.929688 158.609375 C 115.324219 168.011719 110.058594 177.597656 108.835938 187.671875 C 108.824219 187.855469 109.066406 189.582031 109.398438 188.910156 C 111.207031 185.140625 112.109375 180.910156 113.527344 176.976562 C 115.484375 171.582031 117.707031 166.300781 119.722656 160.933594 C 119.96875 160.273438 119.515625 157.082031 118.929688 158.609375 " fill-opacity="1" fill-rule="nonzero"/><path fill="#3d3e69" d="M 120.296875 172 C 118.523438 177.414062 116.019531 182.550781 114.335938 187.992188 C 114.261719 188.210938 114.308594 189.863281 114.6875 189.324219 C 117.792969 185.019531 119.464844 179.359375 121.089844 174.359375 C 121.3125 173.671875 120.796875 170.445312 120.296875 172 " fill-opacity="1" fill-rule="nonzero"/><path fill="#3d3e69" d="M 120.601562 95.578125 C 118.195312 102.339844 115.164062 108.820312 112.429688 115.457031 C 112.292969 115.777344 112.390625 117.71875 112.757812 117.144531 C 116.605469 111.289062 118.976562 104.292969 121.3125 97.714844 C 121.53125 97.117188 121.101562 94.171875 120.601562 95.578125 " fill-opacity="1" fill-rule="nonzero"/><path fill="#3d3e69" d="M 265.539062 148.128906 C 267.542969 144.828125 269.351562 141.320312 271.125 137.992188 C 270.707031 137.640625 270.253906 137.308594 269.902344 136.894531 C 268.191406 139.351562 266.554688 141.929688 265.125 144.597656 C 265.269531 145.769531 265.40625 146.957031 265.539062 148.128906 " fill-opacity="1" fill-rule="nonzero"/><path fill="#3d3e69" d="M 266.601562 161.519531 C 270.988281 155.222656 274.066406 147.507812 277.011719 140.523438 C 276.535156 140.5 276.070312 140.4375 275.59375 140.339844 C 272.675781 146.34375 269.363281 152.152344 266.441406 158.132812 C 266.515625 159.269531 266.566406 160.394531 266.601562 161.519531 " fill-opacity="1" fill-rule="nonzero"/><path fill="#3d3e69" d="M 283.648438 139.59375 C 278.085938 151.261719 269.265625 161.835938 266.980469 174.808594 C 266.945312 175.042969 267.089844 176.511719 267.371094 175.765625 C 271.976562 163.878906 278.746094 153.375 284.050781 141.84375 C 284.292969 141.308594 283.941406 138.960938 283.648438 139.59375 " fill-opacity="1" fill-rule="nonzero"/><path fill="#3d3e69" d="M 272.515625 185.804688 C 272.859375 185.019531 273.199219 184.238281 273.542969 183.46875 C 275.558594 178.992188 277.539062 174.515625 279.53125 170.03125 C 284.171875 159.597656 289.367188 149.425781 294.324219 139.144531 C 294.242188 138.140625 294.167969 137.125 294.105469 136.097656 C 287.800781 148.960938 281.140625 161.652344 275.4375 174.808594 C 274.019531 178.0625 271.304688 181.964844 270.609375 185.789062 C 271.246094 185.789062 271.878906 185.804688 272.515625 185.804688 " fill-opacity="1" fill-rule="nonzero"/><path fill="#3d3e69" d="M 281.519531 185.914062 C 282.5 183.527344 283.378906 181.316406 284 180.054688 C 287.558594 172.890625 291.34375 165.847656 295.011719 158.730469 C 295.316406 158.167969 294.9375 155.539062 294.558594 156.261719 C 289.316406 166.09375 283.855469 175.835938 278.980469 185.863281 C 279.835938 185.875 280.679688 185.886719 281.519531 185.914062 " fill-opacity="1" fill-rule="nonzero"/><path fill="#3d3e69" d="M 289.953125 186.121094 C 291.371094 183.675781 292.800781 181.230469 294.179688 178.761719 C 294.558594 178.085938 294.144531 174.933594 293.617188 175.8125 C 291.710938 179.078125 289.242188 182.5 287.203125 186.046875 C 288.117188 186.070312 289.035156 186.097656 289.953125 186.121094 " fill-opacity="1" fill-rule="nonzero"/><path fill="#3d3e69" d="M 258.28125 186.621094 C 256.558594 188.40625 253.332031 194.117188 251.4375 198.152344 C 251.746094 198.777344 252.011719 199.425781 252.257812 200.070312 C 253.589844 197.457031 257.21875 190.082031 258.476562 188.359375 C 258.722656 188.015625 258.5 186.402344 258.28125 186.621094 " fill-opacity="1" fill-rule="nonzero"/><path fill="#3d3e69" d="M 265.710938 186.132812 C 262.265625 191.390625 256.621094 202.53125 254.054688 209.195312 C 254.296875 209.816406 254.421875 210.464844 254.382812 211.164062 C 257.804688 205.011719 262.703125 193.261719 266.027344 187.757812 C 266.246094 187.417969 266.015625 185.667969 265.710938 186.132812 " fill-opacity="1" fill-rule="nonzero"/><path fill="#3d3e69" d="M 272.175781 185.902344 C 266.261719 194.519531 258.304688 210.269531 254.933594 220.210938 C 254.96875 221.324219 254.945312 222.449219 254.910156 223.5625 C 259.441406 213.558594 266.589844 197.261719 272.46875 187.882812 C 272.75 187.441406 272.308594 185.703125 272.175781 185.902344 " fill-opacity="1" fill-rule="nonzero"/><path fill="#3d3e69" d="M 280.164062 187.222656 C 277.148438 191.230469 259.527344 219.964844 252.929688 235.617188 C 251.988281 240.277344 251.121094 244.933594 250.316406 249.59375 C 250.582031 250.117188 250.9375 250.558594 251.425781 250.851562 C 251.78125 251.074219 251.632812 249.714844 251.5625 249.570312 C 248.824219 243.355469 259.929688 227.191406 262.742188 221.847656 C 267.296875 213.203125 274.667969 197.808594 280.445312 189.898438 C 280.910156 189.261719 280.335938 186.988281 280.164062 187.222656 " fill-opacity="1" fill-rule="nonzero"/><path fill="#3d3e69" d="M 290.976562 189.617188 C 283.539062 194.277344 279.699219 202.566406 275.914062 210.195312 C 271.550781 218.976562 266.894531 226.667969 261.164062 234.589844 C 258.367188 238.453125 253.125 244.46875 250.132812 250.621094 C 249.496094 254.324219 248.898438 258.019531 248.347656 261.734375 C 248.410156 261.929688 248.445312 262.136719 248.507812 262.320312 C 248.957031 263.519531 249.238281 261.394531 249.203125 261.0625 C 248.421875 251.476562 262.730469 237.074219 267.945312 229.773438 C 276.867188 217.277344 280.421875 202.382812 291.113281 190.851562 L 290.976562 189.617188 " fill-opacity="1" fill-rule="nonzero"/><path fill="#3d3e69" d="M 295.742188 196.160156 C 285.882812 207.542969 278.675781 220.394531 271.429688 233.539062 C 264.648438 245.851562 254.308594 257.699219 250.644531 271.359375 C 250.535156 271.773438 250.851562 273.949219 251.21875 272.886719 C 255.777344 259.777344 265.320312 248.371094 272.003906 236.253906 C 279.285156 223.046875 286.347656 209.953125 295.964844 198.226562 C 296.328125 197.773438 295.925781 195.953125 295.742188 196.160156 " fill-opacity="1" fill-rule="nonzero"/><path fill="#3d3e69" d="M 306.484375 197.089844 C 296.660156 209.660156 288.988281 223.597656 280.53125 237.085938 C 270.890625 252.464844 256.828125 264.9375 248.054688 280.785156 C 248.03125 281.480469 248.03125 282.179688 248.03125 282.875 C 258.988281 272.875 269.71875 257.101562 278.246094 244.496094 C 288.363281 229.515625 296.574219 213.316406 306.667969 198.300781 L 306.484375 197.089844 " fill-opacity="1" fill-rule="nonzero"/><path fill="#3d3e69" d="M 311.664062 208.339844 C 301.15625 226.214844 288.804688 242.792969 276.351562 259.328125 C 267.175781 271.527344 259.027344 285.1875 248.835938 296.632812 C 248.972656 297.890625 249.105469 299.152344 249.265625 300.421875 C 260.578125 291.191406 268.558594 274.207031 276.792969 263.25 C 289.523438 246.316406 301.78125 229.1875 312.128906 210.660156 C 312.421875 210.136719 312.066406 207.652344 311.664062 208.339844 " fill-opacity="1" fill-rule="nonzero"/><path fill="#3d3e69" d="M 311.222656 230.164062 C 299.738281 241.585938 291.601562 255.179688 283.0625 268.816406 C 273.785156 283.609375 259.6875 294.894531 250.363281 309.445312 C 250.511719 310.65625 250.644531 311.867188 250.777344 313.078125 C 259.746094 301.839844 270.292969 291.996094 278.578125 280.234375 C 289.746094 264.414062 298.054688 246.914062 311.503906 232.71875 C 311.996094 232.207031 311.503906 229.882812 311.222656 230.164062 " fill-opacity="1" fill-rule="nonzero"/><path fill="#3d3e69" d="M 309.074219 253.675781 C 290.464844 277.691406 271.929688 301.277344 251.71875 323.910156 C 251.78125 325.121094 251.828125 326.320312 251.855469 327.507812 C 273.96875 306.671875 291.246094 280.480469 309.367188 256.304688 C 309.832031 255.695312 309.292969 253.394531 309.074219 253.675781 " fill-opacity="1" fill-rule="nonzero"/><path fill="#3d3e69" d="M 311.773438 268.375 C 299.714844 281.652344 289.632812 296.511719 278.027344 310.167969 C 269.609375 320.070312 258.890625 327.761719 251.390625 338.304688 C 251.207031 339.78125 250.976562 341.238281 250.679688 342.667969 C 259.527344 332.421875 269.070312 323.128906 278.382812 313.261719 C 290.796875 300.117188 300.15625 284.183594 312.019531 270.515625 C 312.421875 270.050781 311.996094 268.128906 311.773438 268.375 " fill-opacity="1" fill-rule="nonzero"/><path fill="#3d3e69" d="M 308.523438 289.382812 C 297.269531 304.957031 284.820312 319.351562 271.464844 333.167969 C 262.410156 342.535156 249.386719 349.601562 244.292969 361.964844 C 244.179688 362.207031 244.292969 363.808594 244.683594 363.296875 C 253.503906 351.828125 265.441406 343.292969 275.507812 332.898438 C 287.679688 320.328125 298.6875 306.546875 308.855469 292.304688 C 309.355469 291.605469 308.71875 289.113281 308.523438 289.382812 " fill-opacity="1" fill-rule="nonzero"/><path fill="#3d3e69" d="M 307.363281 302.511719 C 299.007812 315.472656 290.234375 328.054688 280.300781 339.878906 C 270.953125 350.984375 259.527344 359.089844 249.203125 369.054688 C 248.886719 369.371094 248.847656 371.28125 249.449219 371.035156 C 261.972656 365.914062 272.089844 353.585938 280.726562 343.5625 C 290.992188 331.625 299.566406 318.1875 307.875 304.875 C 308.21875 304.324219 307.839844 301.78125 307.363281 302.511719 " fill-opacity="1" fill-rule="nonzero"/><path fill="#3d3e69" d="M 309.527344 314.433594 C 302.867188 323.421875 296.625 332.726562 289.914062 341.679688 C 282.816406 351.128906 274.066406 358.636719 266.320312 367.417969 C 266.027344 367.734375 265.96875 369.765625 266.566406 369.472656 C 275.507812 365.042969 282.546875 355.53125 288.375 347.644531 C 295.890625 337.472656 302.671875 326.796875 309.976562 316.488281 C 310.308594 316.035156 310.003906 313.800781 309.527344 314.433594 " fill-opacity="1" fill-rule="nonzero"/><path fill="#3d3e69" d="M 310.539062 329.121094 C 302.769531 341.25 291.566406 352.476562 286.46875 366.070312 C 286.382812 366.316406 286.519531 368.285156 286.886719 367.882812 C 291.332031 362.988281 294.472656 356.667969 298.222656 351.214844 C 302.648438 344.808594 307.09375 338.4375 311.113281 331.773438 C 311.480469 331.164062 311.078125 328.289062 310.539062 329.121094 " fill-opacity="1" fill-rule="nonzero"/><path fill="#3d3e69" d="M 309.332031 347.265625 C 305.410156 352.855469 300.351562 358.011719 297.199219 364.089844 C 297.027344 364.433594 296.953125 366.964844 297.613281 366.511719 C 300.386719 364.617188 302.390625 361.449219 304.417969 358.832031 C 306.398438 356.289062 308.316406 353.710938 310.1875 351.09375 C 310.796875 350.210938 310.171875 346.066406 309.332031 347.265625 " fill-opacity="1" fill-rule="nonzero"/><path fill="#3d3e69" d="M 181.585938 229.222656 C 176.5625 237.71875 171.089844 246.671875 169.132812 256.476562 C 169.109375 256.671875 169.328125 258.226562 169.585938 257.664062 C 173.59375 248.761719 177.308594 239.96875 182.085938 231.433594 C 182.378906 230.898438 182.011719 228.5 181.585938 229.222656 " fill-opacity="1" fill-rule="nonzero"/><path fill="#3d3e69" d="M 189.296875 229.171875 C 182.597656 238.027344 175 249.472656 173.375 260.683594 C 173.335938 260.878906 173.484375 262.785156 173.898438 262.101562 C 176.636719 257.722656 178.054688 252.367188 180.375 247.699219 C 183.160156 242.097656 186.484375 236.777344 189.808594 231.484375 C 190.136719 230.984375 189.855469 228.414062 189.296875 229.171875 " fill-opacity="1" fill-rule="nonzero"/><path fill="#3d3e69" d="M 197.101562 229.785156 C 188.402344 241.253906 178.8125 254.546875 176.195312 269.011719 C 176.113281 269.523438 176.574219 272.359375 177.113281 270.855469 C 182.160156 256.878906 188.84375 244.480469 197.542969 232.4375 C 197.96875 231.839844 197.371094 229.429688 197.101562 229.785156 " fill-opacity="1" fill-rule="nonzero"/><path fill="#3d3e69" d="M 202.785156 232.621094 C 196.945312 240.507812 192.644531 249.738281 187.792969 258.25 C 185.226562 262.726562 181.21875 266.625 180.679688 271.957031 C 180.632812 272.445312 180.621094 273.621094 181.144531 273.925781 L 181.351562 274.058594 L 181.695312 273.644531 C 182.5 268.730469 186.703125 264.351562 189.015625 260.046875 C 193.792969 251.171875 198.582031 242.292969 202.894531 233.171875 L 202.785156 232.621094 " fill-opacity="1" fill-rule="nonzero"/><path fill="#3d3e69" d="M 206.207031 236.230469 C 199.988281 243.050781 196.429688 251.707031 192.179688 259.804688 C 187.769531 268.226562 181.144531 275.085938 178.773438 284.476562 C 178.640625 285.015625 179.117188 287.695312 179.679688 286.261719 C 183.027344 277.691406 188.539062 270.5625 192.789062 262.480469 C 197.273438 253.96875 200.953125 245.242188 206.375 237.230469 L 206.207031 236.230469 " fill-opacity="1" fill-rule="nonzero"/><path fill="#3d3e69" d="M 210.3125 243.371094 C 203.382812 253.589844 198.105469 264.765625 191.664062 275.28125 C 187.15625 282.644531 180.742188 288.34375 180.144531 297.351562 C 180.117188 297.683594 180.523438 299.554688 180.875 298.464844 C 183.664062 289.734375 189.746094 283 194.316406 275.199219 C 200.046875 265.441406 204.617188 255.09375 210.800781 245.582031 C 211.117188 245.082031 210.777344 242.671875 210.3125 243.371094 " fill-opacity="1" fill-rule="nonzero"/><path fill="#3d3e69" d="M 209.921875 256.867188 C 202.417969 270.222656 195.109375 284.539062 185.75 296.707031 C 183.308594 299.859375 177.394531 306.4375 180.386719 310.925781 C 180.632812 311.292969 180.839844 310.765625 180.890625 310.570312 C 182.613281 302.941406 189.808594 295.324219 193.71875 288.671875 C 199.523438 278.816406 204.910156 268.742188 210.324219 258.679688 C 210.554688 258.238281 210.25 256.292969 209.921875 256.867188 " fill-opacity="1" fill-rule="nonzero"/><path fill="#3d3e69" d="M 203.640625 278.976562 C 198.164062 285.996094 194.121094 293.820312 189.734375 301.523438 C 185.605469 308.773438 179.605469 314.617188 176.574219 322.46875 C 176.355469 323.054688 176.660156 326.722656 177.527344 325.464844 C 178.042969 324.742188 178.542969 324.019531 179.03125 323.300781 C 179.203125 323.066406 179.335938 321.550781 178.824219 321.625 C 178.238281 321.722656 177.664062 321.808594 177.078125 321.894531 C 177.234375 323.078125 177.382812 324.277344 177.527344 325.464844 C 181.367188 318.203125 186.496094 311.867188 190.480469 304.714844 C 195.125 296.398438 198.839844 287.621094 203.75 279.453125 L 203.640625 278.976562 " fill-opacity="1" fill-rule="nonzero"/><path fill="#3d3e69" d="M 202.34375 295.25 C 195.625 304.578125 188.5 315.621094 184.824219 326.566406 C 184.664062 327.015625 184.847656 330.085938 185.605469 329.035156 C 188.832031 324.570312 190.859375 318.996094 193.316406 314.066406 C 196.359375 307.953125 199.546875 301.9375 202.46875 295.765625 L 202.34375 295.25 " fill-opacity="1" fill-rule="nonzero"/><path fill="#3d3e69" d="M 203.75 306.390625 C 202.160156 309.753906 200.644531 313.164062 199.019531 316.515625 C 197.507812 319.667969 195.429688 322.601562 194.328125 325.929688 C 194.242188 326.210938 194.144531 328.472656 194.855469 328.03125 C 197.359375 326.46875 198.59375 322.417969 199.839844 319.839844 C 201.476562 316.429688 202.945312 312.945312 204.507812 309.507812 C 204.875 308.699219 204.238281 305.324219 203.75 306.390625 " fill-opacity="1" fill-rule="nonzero"/><path fill="#3d3e69" d="M 209.652344 316.746094 C 208.722656 318.582031 207.707031 320.367188 206.535156 322.066406 C 205.300781 323.839844 203.824219 325.34375 202.957031 327.359375 C 202.808594 327.714844 202.722656 329.082031 203.296875 329.167969 C 204.933594 329.449219 206.21875 327.492188 207.097656 326.355469 C 208.464844 324.582031 209.578125 322.589844 210.59375 320.597656 C 211.054688 319.679688 211.054688 318.496094 210.8125 317.515625 C 210.714844 317.113281 210.128906 315.816406 209.652344 316.746094 " fill-opacity="1" fill-rule="nonzero"/></svg>